/* XPM */
static char *bccc1479cc2246dba6ca18754c1b5ce4bNMbb80i9malaosv[] = {
/* columns rows colors chars-per-pixel */
"16 16 144 2 ",
"   c None",
".  c black",
"X  c #333133",
"o  c #3B3C3F",
"O  c #3D3E41",
"+  c #39434A",
"@  c #3F474D",
"#  c #424346",
"$  c #444548",
"%  c #46484A",
"&  c #4B4B4C",
"*  c #535456",
"=  c #545557",
"-  c #565657",
";  c #555658",
":  c #575758",
">  c #585759",
",  c #52595E",
"<  c #535A5F",
"1  c #545A5F",
"2  c #58595B",
"3  c #5A595B",
"4  c #5D5C5E",
"5  c #575D61",
"6  c #585D62",
"7  c #5E5F61",
"8  c #5E6063",
"9  c #696A6C",
"0  c #6D6E6F",
"q  c #797B7E",
"w  c #7E7C7D",
"e  c #C00020",
"r  c #B35E65",
"t  c #BD757A",
"y  c #CD4755",
"u  c #FFAC00",
"i  c #FFAC07",
"p  c #FFAB0A",
"a  c #FFAD08",
"s  c #FFAC0A",
"d  c #FFAB0C",
"f  c #FFAE0C",
"g  c #FFAF0E",
"h  c #FFA916",
"j  c #FEA917",
"k  c #FFA917",
"l  c #FFAA17",
"z  c #FFAA18",
"x  c #FFB717",
"c  c #FFB51E",
"v  c #FFAE2F",
"b  c #F7A134",
"n  c #FFAB33",
"m  c #FFAC33",
"M  c #FEAB34",
"N  c #FFAC34",
"B  c #FFAF34",
"V  c #FEAC36",
"C  c #FFAC37",
"Z  c #FFAD37",
"A  c #FEAC38",
"S  c #FFAD38",
"D  c #FFAE38",
"F  c #FFB430",
"G  c #FFB631",
"H  c #FFB138",
"J  c #FFBB3F",
"K  c #F9AB43",
"L  c #ECA857",
"P  c #F6AF5B",
"I  c #FFB561",
"U  c #FFB660",
"Y  c #FFB661",
"T  c #FFBC62",
"R  c #FFBD62",
"E  c #7E8083",
"W  c #838283",
"Q  c #888688",
"!  c #898A8D",
"~  c #94878A",
"^  c #868C92",
"/  c #8C9093",
"(  c #82939E",
")  c #84929E",
"_  c #8B9C9F",
"`  c #939397",
"'  c #959597",
"]  c #969596",
"[  c #979597",
"{  c #929598",
"}  c #939599",
"|  c #939698",
" . c #939699",
".. c #949599",
"X. c #939A9B",
"o. c #999A9B",
"O. c #96A9B3",
"+. c #95A8B5",
"@. c #96A9B6",
"#. c #98A9B5",
"$. c #9AA9B4",
"%. c #A0A1A2",
"&. c #A0A2A4",
"*. c #A0A2A5",
"=. c #A2A3A4",
"-. c #A5A7A9",
";. c #A6A7A8",
":. c #A7A9AB",
">. c #A1A8AF",
",. c #A6A9AD",
"<. c #A8A9AC",
"1. c #B8AAA2",
"2. c #A2A8B0",
"3. c #BDBEBF",
"4. c #C5AB99",
"5. c #D4B69F",
"6. c #D5B69F",
"7. c #D6B7A0",
"8. c #DABAA1",
"9. c #DBBAA1",
"0. c #BEBFC1",
"q. c #C1C2C3",
"w. c #C2C3C5",
"e. c #D7D1CF",
"r. c #D7D2CF",
"t. c #CED0D1",
"y. c #D7D3D0",
"u. c #D2D4D6",
"i. c #DBDCDD",
"p. c #E1DBD8",
"a. c #DFE1E2",
"s. c #E1E2E3",
"d. c #E6E3E3",
"f. c #E0E3E6",
"g. c #E0E5E6",
"h. c #E8E8E7",
"j. c #EEE8E4",
"k. c #E5EBEC",
"l. c #EDEDEF",
"z. c #ECEEEE",
"x. c #EDEFEF",
"c. c #EEEFEF",
"v. c #EEEEF0",
"b. c #EFEFF1",
/* pixels */
"      v.z.z.z.v.c.c.b.          ",
"    i.;.;.;.%.%.=.o.t.h.    N   ",
"    0.. O $ q q E 7 0 f.  m     ",
"    q.# 7 9 &.&.:.! W a.  b     ",
"    w.o 7 2 - * : % Q k.  e     ",
"    3.X 4 - 2 : 2 & w g.  y     ",
"    u.+ 5 , 1 < 6 @ / a.~ t     ",
"    d.p.e.e.e.e.y.e.j.    r     ",
"      R Y Y Y Y Y R P ^ X._     ",
"      z h h h h h c f   ' {     ",
"      N S S S S N K g   ' |     ",
"      n H m N N N G K _     |   ",
"      S H C A N C G L (     ..  ",
"      u f a p p i x     [ | |   ",
"    ,.4.9.5.7.7.5.9.1.>.        ",
"    <.#.@.#.O.O.#.+.>.,.        "
};
