/* XPM */
static char *_c3d250ab1ea4b19e33958716e2b5212kOgN27ccFwcV7D4Z[] = {
/* columns rows colors chars-per-pixel */
"16 16 156 2 ",
"   c None",
".  c black",
"X  c gray12",
"o  c #222222",
"O  c #232A23",
"+  c #282827",
"@  c #2E312E",
"#  c #62490A",
"$  c #654C08",
"%  c #664C0B",
"&  c #684F17",
"*  c #614B1C",
"=  c #6A521E",
"-  c gray26",
";  c #474648",
":  c #484848",
">  c #594E5A",
",  c #575957",
"<  c #6E614E",
"1  c #695F69",
"2  c #686869",
"3  c gray43",
"4  c #677067",
"5  c #7A737A",
"6  c #7A767A",
"7  c #7C7C7D",
"8  c gray50",
"9  c #9C7400",
"0  c #9D7800",
"q  c #9C7E14",
"w  c #8F6F24",
"e  c #907648",
"r  c #32B92B",
"t  c #4BB93E",
"y  c #4EBD3F",
"u  c #50864B",
"i  c #4DB540",
"p  c #50B943",
"a  c #53B448",
"s  c #5EB057",
"d  c #60B559",
"f  c #6DA867",
"g  c #6AB961",
"h  c #78A575",
"j  c #57C74A",
"k  c #5BC150",
"l  c #AD8100",
"z  c #B58500",
"x  c #B88A00",
"c  c #B88D15",
"v  c #B98E1B",
"b  c #AB832B",
"n  c #AE872B",
"m  c #AF8B2F",
"M  c #B28A23",
"N  c #B1892B",
"B  c #B2882B",
"V  c #B3892B",
"C  c #B28A2B",
"Z  c #B38A2B",
"A  c #B08B2D",
"S  c #B18B2D",
"D  c #B58C2C",
"F  c #B78D2D",
"G  c #B48C2F",
"H  c #B78D2F",
"J  c #B88E2B",
"K  c #B98E2B",
"L  c #BB912E",
"P  c #BD912C",
"I  c #BE912D",
"U  c #BC902E",
"Y  c #BF942D",
"T  c #A18435",
"R  c #AC8831",
"E  c #AE8A31",
"W  c #B68E33",
"Q  c #B78F36",
"!  c #B48E38",
"~  c #C09323",
"^  c #C2962E",
"/  c #C39731",
"(  c #C49731",
")  c #C49831",
"_  c #C49832",
"`  c #C59832",
"'  c #C69936",
"]  c #B69144",
"[  c #B89145",
"{  c #B89246",
"}  c #B89348",
"|  c #AD9057",
" . c #BE9A5A",
".. c #87837E",
"X. c #968978",
"o. c #C1955E",
"O. c #868686",
"+. c gray53",
"@. c #898889",
"#. c #8B8B8B",
"$. c #8B8C8B",
"%. c #8E8E8E",
"&. c gray57",
"*. c gray59",
"=. c #979797",
"-. c #9B9B9B",
";. c #9F9D9F",
":. c #9C9E9F",
">. c gray62",
",. c #99A598",
"<. c #9CA59B",
"1. c #9FB89D",
"2. c #A5A19D",
"3. c #A2A1A1",
"4. c #A3A3A2",
"5. c #A6A3A5",
"6. c #A8A7A6",
"7. c #AAAAAA",
"8. c #AEADAB",
"9. c #ACACAC",
"0. c gray68",
"q. c #ACADAF",
"w. c #A9ADB1",
"e. c #AFB1B3",
"r. c gray70",
"t. c #B2B3B6",
"y. c #B3B5B7",
"u. c #B4B6B8",
"i. c #B5B7BA",
"p. c #B8B7B8",
"a. c gray72",
"s. c #BABAB9",
"d. c #BBBBBB",
"f. c #BBBDBE",
"g. c #BDBCBC",
"h. c #C4B297",
"j. c #C4B298",
"k. c #C0BFBE",
"l. c #BFCABE",
"z. c #C5BEC5",
"x. c #C2C2C1",
"c. c #C3C3C3",
"v. c #C4C4C3",
"b. c #C2C3C4",
"n. c #C5C6C8",
"m. c gray79",
"M. c #CAC9C9",
"N. c #CACACA",
"B. c #CACCCE",
"V. c gray80",
"C. c #CDCCCC",
"Z. c #CDCDCD",
"A. c #D0D1D2",
"S. c #D4D3D3",
"D. c #D2D4D2",
"F. c gray86",
/* pixels */
"        J J Y                   ",
"        Q ! E U A A B B         ",
"      F z l q m W F A n U U     ",
"      v h.h.| M x ~ ' T m U     ",
"      { c.B.a.2.X.e 9 0 c ^ B   ",
"      } g.c.N.A.n.i.:...< w n B ",
"      { c.N.d.C.S.g.N.C.w.* F D ",
"      ] v.7 . . %.0.=.C.w.= /   ",
"       .6.. + X . *.e b.t.* Q   ",
"      o.8.2 - o . &.-.4.i.* '   ",
"      r 1.5 . : :.-.#.4.y.$ _   ",
"  i y f 4 ; O.0.3 O +.5.y.$ '   ",
"  g l.z.;.r.7., @ > @.<.f.# _   ",
"      D.F.N.$.6 2 u d k h       ",
"            p.,.s j p           ",
"                t a             "
};
