/* XPM */
static char *_c598990a28a478ec63543c2bb93aedaUjGdp8TheemX3lib[] = {
/* columns rows colors chars-per-pixel */
"16 16 226 2 ",
"   c #6F5E56",
".  c #705F57",
"X  c #736258",
"o  c #73625A",
"O  c #75645A",
"+  c #77655B",
"@  c #73665E",
"#  c #76655D",
"$  c #77665F",
"%  c #76685F",
"&  c #7F695E",
"*  c #7C6C5F",
"=  c #716660",
"-  c #746560",
";  c #756862",
":  c #766C62",
">  c #736864",
",  c #766867",
"<  c #7B6A60",
"1  c #7F6860",
"2  c #7C6A60",
"3  c #7D6B61",
"4  c #7F6B60",
"5  c #7E6A61",
"6  c #796C63",
"7  c #7E6C60",
"8  c #796C64",
"9  c #796F65",
"0  c #796C66",
"q  c #786D67",
"w  c #796F66",
"e  c #746A69",
"r  c #776C68",
"t  c #746C6A",
"y  c #796B68",
"u  c #786F68",
"i  c #786E6C",
"p  c #7D7165",
"a  c #7E7065",
"s  c #7F7166",
"d  c #7E7266",
"f  c #77776F",
"g  c #7E7168",
"h  c #7F7168",
"j  c #7E7169",
"k  c #7D7369",
"l  c #7F7269",
"z  c #7E746A",
"x  c #7E746B",
"c  c #7A726F",
"v  c #7E736D",
"b  c #7A766D",
"n  c #7F756C",
"m  c #7F776C",
"M  c #7E776D",
"N  c #7E756E",
"B  c #7F766F",
"V  c #767771",
"C  c #7A7770",
"Z  c #7A7772",
"A  c #7C7471",
"S  c #7F7470",
"D  c #787870",
"F  c #7B7871",
"G  c #7D7872",
"H  c #7D7A73",
"J  c #846A5D",
"K  c #816A62",
"L  c #836A63",
"P  c #846960",
"I  c #856862",
"U  c #836C64",
"Y  c #806E64",
"T  c #816F65",
"R  c #816D66",
"E  c #8D6C63",
"W  c #896E65",
"Q  c #806B68",
"!  c #826D68",
"~  c #837062",
"^  c #827167",
"/  c #817366",
"(  c #847065",
")  c #857264",
"_  c #867364",
"`  c #857367",
"'  c #867267",
"]  c #897165",
"[  c #887267",
"{  c #8C7065",
"}  c #807269",
"|  c #81736A",
" . c #83726A",
".. c #83726B",
"X. c #857369",
"o. c #877368",
"O. c #87706A",
"+. c #84736B",
"@. c #87736A",
"#. c #81746B",
"$. c #83756A",
"%. c #82746B",
"&. c #83776B",
"*. c #867468",
"=. c #85746A",
"-. c #86746A",
";. c #87776A",
":. c #82736C",
">. c #84736C",
",. c #86736D",
"<. c #82756C",
"1. c #83746D",
"2. c #82756D",
"3. c #80766D",
"4. c #83766D",
"5. c #80756F",
"6. c #81776E",
"7. c #83766E",
"8. c #86756D",
"9. c #84766D",
"0. c #86756E",
"q. c #84776E",
"w. c #8B7369",
"e. c #89726A",
"r. c #8B726B",
"t. c #89776B",
"y. c #88746D",
"u. c #88766C",
"i. c #88776D",
"p. c #8B776E",
"a. c #82786F",
"s. c #83796F",
"d. c #827A6F",
"f. c #867A6C",
"g. c #85786F",
"h. c #857B6F",
"j. c #8B7B6B",
"k. c #8A7A6D",
"l. c #8A786E",
"z. c #8B796F",
"x. c #8B7B6E",
"c. c #8C7A6C",
"v. c #8D7B6D",
"b. c #8E7A6F",
"n. c #8B7E6E",
"m. c #8D7C6C",
"M. c #8C7C6F",
"N. c #947D6B",
"B. c #907A6D",
"V. c #817670",
"C. c #807770",
"Z. c #847771",
"A. c #867770",
"S. c #8A7770",
"D. c #827970",
"F. c #837970",
"G. c #837872",
"H. c #827B73",
"J. c #857870",
"K. c #867971",
"L. c #847A70",
"P. c #867973",
"I. c #857B72",
"U. c #867C72",
"Y. c #837A75",
"T. c #817976",
"R. c #837C74",
"E. c #847D75",
"W. c #867D74",
"Q. c #857C77",
"!. c #897B70",
"~. c #8B7A70",
"^. c #8F7B70",
"/. c #8C7B73",
"(. c #897D71",
"). c #8A7C71",
"_. c #8B7F71",
"`. c #897F73",
"'. c #8A7E72",
"]. c #8B7F73",
"[. c #8E7C70",
"{. c #887B75",
"}. c #8A7B74",
"|. c #8F7B74",
" X c #8B7C75",
".X c #8B7E75",
"XX c #8B7E76",
"oX c #8F7E74",
"OX c #8C7F76",
"+X c #8D7F76",
"@X c #837B78",
"#X c #877F7C",
"$X c #897E78",
"%X c #907C71",
"&X c #927F71",
"*X c #947E70",
"=X c #907E74",
"-X c #907F75",
";X c #8D8173",
":X c #8A8074",
">X c #8A8077",
",X c #83807B",
"<X c #868279",
"1X c #8A817A",
"2X c #8E8178",
"3X c #8F8079",
"4X c #908071",
"5X c #908372",
"6X c #928273",
"7X c #918174",
"8X c #958274",
"9X c #948276",
"0X c #958474",
"qX c #988574",
"wX c #9B8577",
"eX c #908279",
"rX c #938278",
"tX c #90837A",
"yX c #908778",
"uX c #90857F",
"iX c #998678",
"pX c #98847B",
"aX c #968D7E",
"sX c #998D81",
"dX c #9A8C81",
"fX c #9B8D82",
/* pixels */
"x.x.Z.X.] (.x.8Xx.~.g.' ] I.c.0X",
"A 1 $ R I u =. XC 1 ; L P k ..[.",
"Y.I.l wXwXc.X.$.H I.} pXqXc.X.5.",
" XV x.x.&XL ;X6X[.V y.c.6XJ ;X4X",
"X.Q.y B.*Xw.e >.W @XQ %XN.y.t } ",
"^ 5.[.rX+Xv 6 _.l Z.|.6X Xn : -X",
"q.H.>.s b 3.* x.H.I.$.l b 5.1  X",
"+Xn R l l 5.$ q.+X5.R l l q.- } ",
"5.J * q.; v l I.Z.K 7 5.; l l g.",
"F X.X q._.i.n Z.f X.X =.;XS.n Y.",
"G W q.I.#Xw.{.Q.G W i.Q.<Xy.Q.R.",
"8 i.3X1XH.x.;X..y w.3X>Xg.x.-Xm ",
"u - u ..+ p D d., = i n X s F 5.",
"rX>.I.H.K d.5.uXrX' I.d.' f.5.yX",
"+XaX(.%XX ) _ 5X XsX>Xc.. X.) tX",
"y sXX.9 7 K R g.8 sX$.s 1 7 7 k."
};
