/* XPM */
static char *da34796536974076e660dd4e6a0b64afqAPvfhz0tgrR5ueR[] = {
/* columns rows colors chars-per-pixel */
"16 16 62 1 ",
"  c None",
". c black",
"X c #141921",
"o c #31353A",
"O c #424447",
"+ c #424448",
"@ c #45474B",
"# c #43484E",
"$ c #4C4E52",
"% c #4E4E53",
"& c #4E5053",
"* c #535355",
"= c #56585B",
"- c #5B5B5E",
"; c #76685C",
": c #7B536F",
"> c #5C6978",
", c #656567",
"< c #6E6A65",
"1 c gray45",
"2 c #865F77",
"3 c #AB7779",
"4 c #BD8300",
"5 c #F1A200",
"6 c #F1A900",
"7 c #B88F57",
"8 c #004099",
"9 c #426B9A",
"0 c #895A8D",
"q c #6F809A",
"w c #838384",
"e c #868585",
"r c #838392",
"t c #939394",
"y c #959595",
"u c #9B969E",
"i c #989898",
"p c #989899",
"a c #9F9D9C",
"s c #9290B2",
"d c #9D90B5",
"f c #9D98B1",
"g c #94A1AB",
"h c #A3A3A2",
"j c #A4A2A1",
"k c #A3A3A5",
"l c #A6AAAE",
"z c #AEABAB",
"x c #AFACAB",
"c c #B3B3B5",
"v c #CEC4B9",
"b c #BCC0C8",
"n c #C2C2C3",
"m c #CAC7C2",
"M c #D3CCC5",
"N c #DED8D2",
"B c #D8D8D6",
"V c #DFDDDA",
"C c #FFE6C8",
"Z c #FFE5CA",
"A c #E2E5E9",
"S c #E9ECF2",
/* pixels */
"                ",
"    l           ",
"   fr      o%   ",
"   dq    k.  -  ",
"   s903gzanBh   ",
"    82:>u;#1 =  ",
"      47c<  @   ",
"      6vVj      ",
"     5CANm      ",
"     CSxp       ",
"    Mb .p       ",
"      .wt       ",
"      XeyO      ",
"      +*,%      ",
"       &        ",
"                "
};
