/* XPM */
static char *_064328605d8455ab018419c16ba25f8RLebf3u0J4n80c9W[] = {
/* columns rows colors chars-per-pixel */
"16 16 142 2 ",
"   c None",
".  c black",
"X  c #151718",
"o  c #181A1B",
"O  c #181A1D",
"+  c #191C1E",
"@  c #1A1D20",
"#  c #1A1F20",
"$  c #1C2226",
"%  c #1C2327",
"&  c #26292A",
"*  c #27292B",
"=  c #2F363A",
"-  c #2F363B",
";  c #394045",
":  c #3A4145",
">  c #40484D",
",  c #40484E",
"<  c #454B4F",
"1  c #464B4F",
"2  c #444E54",
"3  c #444E55",
"4  c #49545C",
"5  c #4A555C",
"6  c #4A565D",
"7  c #4B565D",
"8  c #4C565E",
"9  c #51585D",
"0  c #52585D",
"q  c #555A5E",
"w  c #555B5F",
"e  c #465660",
"r  c #525C64",
"t  c #516573",
"y  c #556671",
"u  c #536674",
"i  c #5E6F79",
"p  c #5F6E7A",
"a  c #6D7376",
"s  c #6E7377",
"d  c #61707A",
"f  c #667178",
"g  c #667179",
"h  c #64737D",
"j  c #66757E",
"k  c #6D7478",
"l  c #6D7479",
"z  c #DC002B",
"x  c #DD1A3A",
"c  c #E4163D",
"v  c #667580",
"b  c #677681",
"n  c #697983",
"m  c #6A7984",
"M  c #6A7B84",
"N  c #2EA3EF",
"B  c #22A5F1",
"V  c #46A9EF",
"C  c #47A9EF",
"Z  c #48A9EF",
"A  c #4BAAEE",
"S  c #4AAAEF",
"D  c #4FA9ED",
"F  c #4CAAEE",
"G  c #4DABEF",
"H  c #50A9EE",
"J  c #51A9EE",
"K  c #51ABEE",
"L  c #51ABEF",
"P  c #4DAFF6",
"I  c #52AFF4",
"U  c #6CAFE9",
"Y  c #6AB0EB",
"T  c #7CB6EA",
"R  c #79B7EE",
"E  c #7AB7EE",
"W  c #71BAF0",
"Q  c #7ABDF0",
"!  c #80878D",
"~  c #80888D",
"^  c #81888D",
"/  c #868F92",
"(  c #879092",
")  c #8F989E",
"_  c #90989D",
"`  c #91989E",
"'  c #99A1A7",
"]  c #9DA6AC",
"[  c #9FAFBA",
"{  c #A2A9AF",
"}  c #A2AAAF",
"|  c #A4ACB2",
" . c #ADBBC5",
".. c #B1BDC6",
"X. c #B1BEC6",
"o. c #83B9EA",
"O. c #84B8E8",
"+. c #84B9EB",
"@. c #85BAEA",
"#. c #8ABAE8",
"$. c #8CBBE8",
"%. c #D2BEC4",
"&. c #B6C4CD",
"*. c #B6C4CE",
"=. c #BAC4CB",
"-. c #BAC4CC",
";. c #BBC8D1",
":. c #BFD0DF",
">. c #9AC0E7",
",. c #91C4ED",
"<. c #86C2F9",
"1. c #86C3FA",
"2. c #B9CDE0",
"3. c #B9CEE1",
"4. c #BACEE1",
"5. c #B9CEE3",
"6. c #D2C0C8",
"7. c #D3CDCF",
"8. c #C0D1DF",
"9. c #C7D5DE",
"0. c #CBD4DA",
"q. c #CFD6DA",
"w. c #CFD7DB",
"e. c #CBD5DC",
"r. c #CBD6DC",
"t. c #CCD6DC",
"y. c #CDD8DF",
"u. c #CED8DF",
"i. c #D1D9DD",
"p. c #E1CDD0",
"a. c #CFD9E0",
"s. c #C9DBEC",
"d. c #CBDEED",
"f. c #CCDDEC",
"g. c #D0DAE2",
"h. c #D1DBE2",
"j. c #D2DCE4",
"k. c #D4DEE5",
"l. c #D8DDE3",
"z. c #D4DFE8",
"x. c #F7EAEA",
"c. c #E8F4FD",
/* pixels */
"                                ",
"        c z x x.c.J S P         ",
"      7.p.%.6.l.z.3.3.s.9.      ",
"      d.,.Q W Y Y T +.>.f.      ",
"    t.<.N J J J J G G B <.8.    ",
"    :.I V S V V V V S V I a.    ",
"t ( 3.E +.+.#.$.$.#.O.o.E 3./ u ",
"p =.*. .0.i.q.q.w.q.i.0. .*.=.p ",
"  j.r.X.[ ;.j.g.g.j.;.[ X.0.k.  ",
"  k ) { ) g ^ ! ^ ^ f ) { _ k   ",
"  r u.a.g.s . . . . s j.a.u.w   ",
"  1 ' | ] 0 = : : = 0 ] | ' <   ",
"  % . 6 y d n j j v d y e . %   ",
"  3 * > r 8 4 4 6 6 8 r > * 3   ",
"  M h 6 @ X + o O O X @ 6 h n   ",
"    M                     M     "
};
